# xmcd
#
# Track frame offsets:
#	150
#	19642
#	40735
#	61031
#	84175
#	99705
#	119233
#	137862
#	155793
#	170710
#	182543
#	204165
#	222292
#
# Disc length: 3225 seconds
#
# Revision: 1
# Processed by: cddbd v1.5.2PL0 Copyright (c) Steve Scherf et al.
# Submitted via: audiograbber 1.83.01
#
DISCID=b10c970d
DTITLE=Die Stehpisser - Cold Winds
DYEAR=2001
DGENRE=
TTITLE0=Roosevelt and Ira Lee
TTITLE1=Red Scar Eyes
TTITLE2=Brooklyn Bridge
TTITLE3=Georgia Rae
TTITLE4=Red Blue Jeans
TTITLE5=Best Of Everything
TTITLE6=Fool For Your Stockings
TTITLE7=Dirty Boulevard
TTITLE8=Cold Winds
TTITLE9=People Who Died
TTITLE10=Brown Eyed Girl
TTITLE11=Guilty
TTITLE12=Brooklyn Bridge Revisited
EXTD=
EXTT0=
EXTT1=
EXTT2=
EXTT3=
EXTT4=
EXTT5=
EXTT6=
EXTT7=
EXTT8=
EXTT9=
EXTT10=
EXTT11=
EXTT12=
PLAYORDER=
